<svg version="1.1" viewBox="0 0 16 16" xmlns="http://www.w3.org/2000/svg">
 <g>
  <path d="m2.6276 6.3191s-0.97119-1.1759-1.794-0.86033c1.1622-1.7279 4.6465-3.8531 4.6465-3.8531s1.544-0.44401 2.7006 0.82025c-1.3691 0.81775-5.5531 3.8932-5.5531 3.8932z"/>
  <path d="m5.5441 5.2177-3.3901 2.3433c-0.33738 0.23321-1.0353 0.17502-1.439-0.48465l0.012497 1.3765s-0.24618 4.4823 4.2594 5.9258c-0.62996-1.0237-0.58374-1.6933 0.31977-2.0385 0.90351-0.34525 3.0803-1.7937 3.0803-1.7937s-0.59626-0.34888-1.2616-0.94682c-0.13045 0.10239-0.33884 0.26371-0.65204 0.48965-0.22933 0.16544-0.47347 0.33326-0.697 0.47216-0.22353 0.1389-0.38381 0.25165-0.64204 0.30478l-0.67951 0.1399 0.15239-0.67452c0.27155-1.2121 1.1789-1.9129 1.3515-2.041-4.959e-4 -0.00999 4.307e-4 -0.019975 0-0.029978-0.55582-0.85968-0.86736-1.9056-0.4147-3.0428z"/>
  <path d="m5.7213 12.713s0.68444 0.38955 0.76146 1.7573c1.9732-0.614 5.6449-3.0671 5.6449-3.0671s0.7299-2.0351-1.0842-1.8656c-1.6263 0.94897-5.3221 3.1754-5.3221 3.1754z"/>
  <path d="m6.3332 8.5515s-1.0407 0.76462-1.2899 1.8771c0.43194-0.08888 2.0111-1.3394 2.0111-1.3394s0.96566-0.59799 1.5076-0.73578c0.6641-0.16884 1.1126 0.31013 2.0537-0.090219 0.61298-0.26077 1.0279-1.3681 1.5601-1.6881 0.60603-0.36434 0.19271-0.97547 0.81011-1.2225 0.4481-0.17931 0.87904-0.30983 1.2636-0.36555 2.6797-0.38831-0.45647-2.2663-2.4704-2.6776-2.0139-0.41127-5.8717 4.093-5.4458 6.2421z"/>
 </g>
</svg>
