<svg version="1.1" viewBox="0 0 16 16" xmlns="http://www.w3.org/2000/svg">
 <path d="m8 0.46777s-0.56671 6.7377-0.56671 6.8927-0.22746 0.42503-0.42928 0.42503-0.4307-0.18803-0.4307-0.42503-0.53837-4.8129-0.53837-4.8129-0.49445 5.029-0.49445 5.2139c0 0.18492-0.22649 0.43495-0.4307 0.43495-0.20421 0-0.4307-0.23348-0.4307-0.43495 0-0.20147-0.54404-2.76-0.54404-2.76s-0.51004 2.4553-0.51004 2.76v1.8444s4.375-0.26775 4.375 5.9263c0-6.1975 4.375-5.9263 4.375-5.9263v-1.8444c0-0.30475-0.51004-2.76-0.51004-2.76s-0.54404 2.5586-0.54404 2.76c0 0.20147-0.22649 0.43495-0.4307 0.43495-0.2042 0-0.4307-0.25003-0.4307-0.43495 0-0.18491-0.49445-5.2139-0.49445-5.2139s-0.53837 4.5759-0.53837 4.8129-0.22887 0.42503-0.4307 0.42503c-0.20182 0-0.42928-0.27001-0.42928-0.42503s-0.56671-6.8927-0.56671-6.8927z"/>
</svg>
