<svg version="1.1" viewBox="0 0 16 16" xmlns="http://www.w3.org/2000/svg">
 <path d="m0.68119 8.8741c-0.37358 0.74483 0.40392 0.60211 0.70121 0.79144 0.30555 0.19459 0.7866 0.052089 1.0419 0.30911 0.42651 0.42942 0.41639 1.1454 0.50458 1.7442 0.063223 0.42926-0.26219 0.96712 0.014133 1.3016 0.25374 0.30718 0.46737 0.51902 1.1713 0.23846 0.70391-0.28056 3.4007-7.1172 11.304-9.7049-7.436 0.61806-9.8625 4.7229-11.15 6.0688-0.52329-0.591-0.83083-1.2146-0.83083-1.2146s3.943-5.0405 8.8613-6.8839c-5.7605 0.053308-11.244 6.605-11.617 7.3498z" fill="#1a1a1a" stroke-width=".84273"/>
 <path d="m5.2846 12.178c-1.1353 1.0868 0.93223 3.3245 2.7481 1.7585s-1.5987-1.5353 7.149-6.8439c-4.0994 0.19583-8.7619 3.9985-9.897 5.0853z" fill="#1a1a1a" stroke-width=".84273"/>
</svg>
