<svg version="1.1" viewBox="0 0 16 16" xmlns="http://www.w3.org/2000/svg">
 <g>
  <path d="m9.4684 3.1056s5.0444 0.74625 5.0327 6.3513c-0.01168 5.6051-1.637 5.6039-2.6692 5.9076-1.0322 0.30372-4.6403-0.05496-4.6403-0.05496s2.3141-0.01292 2.6381-0.91041c0.34166-0.94646 1.5588-1.2378 1.5588-1.2378s0.68601-3.3495-2.2775-3.2857c-0.88484 0.00767-2.5182 0.62852-2.5182 0.62852s1.7632-1.1745 1.8099-2.3101c0.027827-0.67606-0.84316-1.6237-1.3741-1.9573-0.60364-0.37922-2.9466-1.0344-2.9814-3.0675-0.034794-2.0331 1.9054-2.6558 3.4762-2.6558-1.6675 0.79745-3.1176 1.6507-1.7802 2.7949 1.3373 1.1442 2.4899 2.0693 2.9741 2.8232 0.36018 0.56079 1.4416 0.68231 1.8933 0.43185 0.4517-0.25045 2.3677-1.777-1.1421-3.4578z"/>
  <path d="m10.57 12.724s-1.0514-1.0135-2.6981-1.0552c-1.6467-0.041781-2.9385 0.16688-3.54-1.0501-0.6015-1.217-2.8335-1.7833-2.8335-1.7833s1.245 1.0284 1.0926 1.8693c-0.15235 0.8409 0.28561 1.306 1.1556 1.8038 0.87003 0.49778 1.6383 0.70156 2.1211 0.75226 0.48278 0.0507 1.6497-0.50548 2.4925-0.50649 0.84276-9.71e-4 2.2098-0.03019 2.2098-0.03019z"/>
 </g>
</svg>
