<svg version="1.1" viewBox="0 0 16 16" xmlns="http://www.w3.org/2000/svg">
 <path d="m8.0178 3.8412-0.64607 6.2181c-0.33284 0.0487-0.65323 0.13488-0.95698 0.25479l-2.8906-3.7528 1.7911 4.3883c-0.25904 0.20549-0.49467 0.43902-0.70067 0.69764l-3.3835-1.2262 2.7466 2.3257c-0.12013 0.30269-0.20693 0.62222-0.25631 0.95394l-3.1712 0.63015 3.1227 0.63622v0.55356h1.4332v-1.1769c0-1.6008 1.2975-2.8982 2.8982-2.8982 1.6008 0 2.8982 1.2975 2.8982 2.8982v1.1769h1.4332v-0.53991l3.1105-0.6256-3.156-0.63925c-0.04841-0.33336-0.13648-0.65427-0.2563-0.95849l2.7572-2.3196-3.3926 1.2171c-0.20588-0.25959-0.44145-0.49434-0.70067-0.70067l1.8017-4.3746-2.8997 3.7377c-0.3038-0.12048-0.62397-0.20862-0.95698-0.25782z" stroke-linecap="round" stroke-linejoin="round" stroke-width="1.553"/>
</svg>
