<svg version="1.1" viewBox="0 0 16 16" xmlns="http://www.w3.org/2000/svg">
 <g>
  <path d="m6.0946 11.586c0.38584-0.9958-0.91569-3.4849 0.20085-3.7511 1.6801-0.3886 3.1254-0.55301 3.6409-2.3022-0.15389-0.42335-0.12257-2.4274-2.5666-3.0802-1.2275 0.15202-0.99819 0.61143-1.8955 0.42452-0.64185-0.19712-0.81785-0.55806-0.77799-0.99493 0.052756-0.6388 0.34953-0.92362 1.6221-1.3201 2.1033-0.043825 4.5429 1.7866 4.9908 5.5736-0.035115 1.5682-0.73698 2.8082-2.8623 3.3475-1.5663 0.36861-1.1402 1.3412-1.4477 2.0914z"/>
  <path d="m7.97 13.945a1.3818 1.4004 0 0 1-1.3818 1.4004 1.3818 1.4004 0 0 1-1.3818-1.4004 1.3818 1.4004 0 0 1 1.3818-1.4004 1.3818 1.4004 0 0 1 1.3818 1.4004z" stroke-linecap="round" stroke-width="1.5743"/>
 </g>
</svg>
