<svg version="1.1" viewBox="0 0 16 16" xmlns="http://www.w3.org/2000/svg">
 <path id="phy" d="m8 1.5644-0.54492 2.8457v0.00586c-1.7393 0.2643-3.0801 1.773-3.0801 3.584 0 1.811 1.3408 3.3197 3.0801 3.584v0.0059l0.54492 2.8457 0.54492-2.8457v-0.0059c1.7393-0.2643 3.0801-1.773 3.0801-3.584 0-1.811-1.3408-3.3197-3.0801-3.584v-0.00586zm-0.54492 3.8672v5.1367c-1.192-0.24904-2.0801-1.2996-2.0801-2.5684s0.88809-2.3193 2.0801-2.5684zm1.0898 0c1.192 0.24904 2.0801 1.2996 2.0801 2.5684s-0.88809 2.3193-2.0801 2.5684z" color="#000000" stroke-linecap="round" style="-inkscape-stroke:none"/>
</svg>
