<svg version="1.1" viewBox="0 0 16 16" xmlns="http://www.w3.org/2000/svg">
 <path id="phy" d="m8 0.98448-0.59402 3.1021v0.00638c-1.896 0.28812-3.3577 1.9328-3.3577 3.907 0 1.9742 1.4616 3.6188 3.3577 3.907v0.0064l0.59402 3.1022 0.59402-3.1021v-0.0064c1.896-0.28815 3.3577-1.9328 3.3577-3.907 0-1.9742-1.4616-3.6188-3.3577-3.907v-0.00638zm-0.59402 4.2157v5.5996c-1.2994-0.27148-2.2675-1.4167-2.2675-2.7998 0-1.3831 0.96812-2.5283 2.2675-2.7998zm1.188 0c1.2994 0.27148 2.2675 1.4167 2.2675 2.7998 0 1.3831-0.96812 2.5283-2.2675 2.7998z" color="#000000" stroke="#000" stroke-linecap="square" stroke-linejoin="round" stroke-width=".93655"/>
</svg>
