<svg version="1.1" viewBox="0 0 16 16" xmlns="http://www.w3.org/2000/svg">
 <g>
  <g transform="matrix(1.0763 0 0 1.0763 -56.627 -19.103)">
   <path d="m62.009 23.988c0.03125 1.8722-2.2301 2.5394-2.1524 3.4537 0.07772 0.91433 0.55801 1.0252 1.0375 0.9584s1.5808-2.6185 1.8897-3.7262c0.42782 0.81079 0.45369 2.0783 0.75483 1.0363s-0.26567-2.5261-1.7653-3.3076c0.92344-0.31234 2.2523-0.53412 0.56468-1.7832-0.58179-0.3359-0.86293-0.62804-1.3884-0.35625-0.52548 0.27179-2.3715 0.22434-2.3715 0.22434s1.6435-0.49391 1.6895-0.77323c0.04595-0.27932-2.3893-1.3091-2.862-1.3091s1.855-0.49384 3.8905 0.37388c2.0355 0.86771 3.6785 3.2741 3.7593 3.9153 0.0808 0.64118 0.76017-0.16643 0.85588-0.75335 0.0957-0.58692 1.2465 3.4912-1.7859 5.6692 0.08066 0.49881 0.45327 1.3998 2.0068-0.29272-0.46547 1.5694-0.47582 2.6989-4.4654 2.6989-0.52945 0.10734-2.2285 1.1205 1.8779 1.1728-0.94749 0.53874-2.8925 1.0737-5.3206 0.86214s-4.3159-2.319-4.332-3.8752c-0.01609-1.5562 1.1144-3.199 3.7018-3.449s2.461 1.4285 4.4152-0.73908z"/>
   <path d="m56.525 19.117s-1.415 1.2043-2.0238 1.3337c-0.60885 0.12933 2.0576 0.44433 2.7017-0.11128s0.01638-1.7503-0.67785-1.2224z"/>
   <path d="m60.263 21.136s0.67802-0.11125 0.55537 0.57365-0.93248 0.96615-1.3758 0.96615-1.5079-1.3161-1.5079-1.3161 1.5971 0.5749 2.3283-0.22373z"/>
  </g>
 </g>
</svg>
