<svg version="1.1" viewBox="0 0 16 16" xmlns="http://www.w3.org/2000/svg">
 <g>
  <path d="m7.9966 0.61968c-1.3467 0.0018858-2.6956 0.36919-3.8435 1.0768-0.31366 0.88979 0.40376 1.4787 0.80872 2.1587-0.50535-0.51947-1.2163-0.71146-1.3785-1.7774-1.8729 1.3634-3.0328 3.6537-3.0159 5.9711 0.80293 1 1.7155 2.4312 3.1783 2.3064 0.64941-0.1503 1.6023-0.18857 1.3429 0.69014l-0.26516 3.6137c1.0336 0.60274 1.5659-2.0292 1.836-0.97463s0.58243 0.9203 0.6548 0.04319c0.072366-0.87711 0.94845 0.21322 1.1649 0.87174s0.56875 0.24285 0.97156-0.2891 1.1304 1.6912 1.7868 0.85732c0.06203-1.6208-0.39667-3.2546-0.30083-4.8678 0.88181-0.01561 2.0606 0.28204 2.8411-0.40991 0.69406-0.72895 1.8141-1.4731 1.6363-2.6183-0.22614-1.4453-0.75957-2.8698-1.7258-3.9893-0.53954 0.56061-1.4724 0.88396-2.8062 0.96541 0.94272-0.37684 2.0606-0.62504 2.2711-1.5396-1.361-1.3296-3.2543-2.0944-5.1565-2.0886zm-4.7817 5.0655c1.0712 0.25923 2.2201 0.42039 3.2294 0.77334 0.79961 1.01-0.64675 1.9945-1.5644 2.1014-1.3741 0.37903-2.8844-1.2078-2.2408-2.5243 0.12845-0.19511 0.33238-0.35892 0.57569-0.35038zm9.5764 0c1.2459 0.1529 0.86643 1.9173 0.08323 2.44-1.0339 0.93235-2.7996 0.39309-3.4297-0.74684-0.35213-1.4135 1.6726-1.154 2.5232-1.474 0.26528-0.11209 0.52662-0.22591 0.82322-0.21926zm-4.7773 2.5154c0.3063 0.97626 0.7588 1.9676 1.0067 2.8995-0.22681 1.0954-2.0688 1.0427-2.1769-0.076142 0.21525-0.96625 0.70656-1.9657 1.1702-2.8234z" stroke-linecap="round" stroke-width="8.3852"/>
 </g>
</svg>
