<svg version="1.1" viewBox="0 0 16 16" xmlns="http://www.w3.org/2000/svg">
 <g>
  <path d="m8.0692 0.7349-0.53129 0.79076s-1.3218 2.46-2.2981 3.4299c-1.2767 1.2682-4.5049 2.9752-4.5049 2.9752s3.0276 1.6254 4.2207 2.827c1.2681 1.2772 2.9728 4.5073 2.9728 4.5073s1.6275-3.0273 2.8294-4.2207c1.2775-1.2684 4.5073-2.9752 4.5073-2.9752s-3.0294-1.625-4.2231-2.827c-1.2683-1.277-2.9728-4.5073-2.9728-4.5073zm-0.00987 2.2883s1.187 2.2418 2.0683 3.1284c0.80656 0.81144 2.8517 1.9102 2.8517 1.9102s-2.2435 1.1851-3.1309 2.0659c-0.81238 0.80627-1.9126 2.8517-1.9126 2.8517s-1.1848-2.2437-2.0659-3.1309c-0.80619-0.81181-2.8517-1.9102-2.8517-1.9102s2.2456-1.1844 3.1334-2.0659c0.81107-0.80532 1.9077-2.8492 1.9077-2.8492z" color="#000000" stroke-linecap="round" stroke-width="1.2652" style="-inkscape-stroke:none"/>
  <path d="m94.462-21.673h5.0594l-1.0061-4.7576-1.1489 1.4867s-2.0866-1.1926-3.7895-1.1926-3.5496 0.79314-3.7369 3.1666c-0.1873 2.3734 3.0011 6.0895 3.0011 6.0895l1.3539-1.5599s-2.2604-3.1047-2.3079-4.2739c-0.04741-1.1691 0.97206-1.1897 1.6612-1.1897 0.6891 0 2.3501 0.67916 2.3501 0.67916z"/>
 </g>
</svg>
