<svg version="1.1" viewBox="0 0 16 16" xmlns="http://www.w3.org/2000/svg">
 <g>
  <path d="m7.498 1.1253c-1.3898 0.022944-1.9798 1.4904-2.6439 1.5971-0.66408 0.10671-2.5729 0.11195-2.772 1.5331-0.19912 1.4211-1.2853 2.1696-1.3269 3.0222-0.041676 0.85256 0.42831 1.3029 0.42831 1.3029s-0.70337 0.14669-0.62044 1.1929c0.082931 1.0462 0.38388 2.1651 1.6051 1.9114 1.2213-0.25378 1.2723-1.5111 2.0234-1.5111s2.2176 1.409 2.2176 1.409l0.060039 2.1415s-2.4169-0.17799-2.77 1.0307c1.5962 0.04702 8.5821 0.12008 8.5821 0.12009 0 0-0.29899-0.60883-2.2876-0.64046-0.7132-0.63948-0.49035-3.5866-0.49035-3.5866 0 0 0.26442-1.5824 2.804-0.80057 0.69452 0.29532 1.0911 0.84086 1.7833 0.81458 0.69213-0.02629 1.353-0.66416 1.353-1.1508 0-0.48666-0.53861-0.70779-0.52437-1.0327 0.01423-0.32495-0.85496-5.377-4.3711-6.1084-1.1367-0.14103-1.6604-1.2678-3.0502-1.2449zm-0.18296 6.495-1.1339-1.1652c1.0011 0.18258 1.1469-0.3046 1.1945-0.86863zm2.4186-1.6755c-0.08453 0.76522 0.32887 1.0477 0.8386 1.2369l-1.7267 0.70579zm-3.9528 1.1328c-0.087532-0.47585 0.37469 1.1133 0.37469 1.1133l-1.5987-0.18721c-0.0022544 0.0064558 1.2321-0.21593 1.224-0.92613zm5.2117 1.0427c-0.32327 0.32515-0.29522 1.041 0.15443 1.0157l-1.553 0.3631zm-4.5713 0.76655c0-1.1e-6 -0.00574 1.8955-0.032023 1.6652-0.026284-0.23034-2.0675-1.0968-2.0675-1.0968 0.39551-0.24881-0.1232-0.87418-0.1232-0.87418z"/>
 </g>
</svg>
